<?xml version="1.0" encoding="utf-8"?>
<!-- Generator: Adobe Illustrator 21.1.0, SVG Export Plug-In . SVG Version: 6.00 Build 0)  -->
<svg version="1.1" id="Де_знаходимось_x3F_"
	 xmlns="http://www.w3.org/2000/svg" xmlns:xlink="http://www.w3.org/1999/xlink" x="0px" y="0px" viewBox="0 0 38 63.5"
	 style="enable-background:new 0 0 38 63.5;" xml:space="preserve">
<style type="text/css">
	.st0{fill:#A69E7B;}
</style>
<path class="st0" d="M6.7,25.7c-2.2-0.1-4.4-0.1-6.7-0.2C0,17,0,8.5,0,0c0,0.4,2,1.6,2.3,1.9c0.8,0.7,1.6,1.3,2.4,2
	c1.6,1.3,3.2,2.6,4.8,4c3.1,2.6,6.3,5.2,9.4,7.7c5.1,4.2,10.1,8.3,15.2,12.5c1.3,1.1,2.6,2.2,3.9,3.2L0,63.5l0.2-25.8l7-0.2V48
	L27,31.7c-2.5-2-5-4.1-7.5-6.1c-3.8-3.1-7.5-6.1-11.2-9.3c-0.6-0.5-1.1-1-1.7-1.5c0.2,0.2,0.2,1.4,0.2,1.8c0,0.6,0,1.1,0,1.6
	c0,1.1,0,2.2,0,3.3C6.8,23,6.7,24.3,6.7,25.7z"/>
</svg>
