<?xml version="1.0" encoding="utf-8"?>
<!-- Generator: Adobe Illustrator 21.1.0, SVG Export Plug-In . SVG Version: 6.00 Build 0)  -->
<svg version="1.1" id="Footer" xmlns="http://www.w3.org/2000/svg" xmlns:xlink="http://www.w3.org/1999/xlink" x="0px" y="0px"
	 viewBox="0 0 11.4 21.3" style="enable-background:new 0 0 11.4 21.3;" xml:space="preserve">
<style type="text/css">
	.st0{fill:none;stroke:#A69E7B;stroke-miterlimit:10;}
</style>
<path class="st0" d="M4.4,0.7L6,5.6C6.1,5.8,6,5.9,5.8,6L4,6.7l3,8.7l1.9-0.5c0.2,0,0.3,0,0.4,0.2l1.7,4.9c0.1,0.2,0,0.3-0.2,0.4
	c-1.4,0.4-2.7,0.9-4.1,0.1c-1.5-0.9-2.4-2.8-3.2-4.2c-0.8-1.4-1.5-2.9-2-4.4c-0.5-1.5-1-3.2-1-4.9c0-0.9,0-1.8,0.1-2.7
	c0-0.5,0.1-1.1,0.3-1.6C1.4,1.3,2.8,0.9,4,0.5C4.2,0.5,4.4,0.6,4.4,0.7z"/>
</svg>
