<?xml version="1.0" encoding="utf-8"?>
<!-- Generator: Adobe Illustrator 21.1.0, SVG Export Plug-In . SVG Version: 6.00 Build 0)  -->
<svg version="1.1" id="_x31_" xmlns="http://www.w3.org/2000/svg" xmlns:xlink="http://www.w3.org/1999/xlink" x="0px" y="0px"
	 viewBox="0 0 130.9 49.6" style="enable-background:new 0 0 130.9 49.6;" xml:space="preserve">
<style type="text/css">
	.st0{display:none;fill:#371213;}
	.st1{fill:#938469;}
</style>
<rect x="-67.8" y="-51.7" class="st0" width="266.5" height="153.1"/>
<g>
	<path class="st1" d="M34.8,14.9l0.3,0.2c-0.4,0.7-0.8,1.2-1.4,1.5c-0.5,0.3-1.1,0.5-1.8,0.5c-1,0-1.9-0.4-2.5-1.2
		c-0.6-0.8-0.9-1.7-0.9-2.8c0-1.1,0.3-2,0.9-2.8c0.7-1,1.6-1.5,2.8-1.5c0.8,0,1.5,0.2,1.9,0.6c0.5,0.4,0.7,0.9,0.7,1.4
		c0,0.3-0.1,0.6-0.3,0.8c-0.2,0.2-0.4,0.3-0.8,0.3c-0.3,0-0.6-0.1-0.8-0.3c-0.2-0.2-0.3-0.6-0.4-1.2c0-0.4-0.1-0.6-0.2-0.7
		c-0.1-0.1-0.3-0.2-0.5-0.2c-0.3,0-0.5,0.1-0.7,0.4c-0.3,0.4-0.4,1.1-0.4,2c0,0.7,0.1,1.4,0.4,2.1c0.2,0.7,0.6,1.2,1,1.5
		c0.3,0.2,0.7,0.4,1.1,0.4c0.3,0,0.5-0.1,0.8-0.2C34.2,15.5,34.5,15.2,34.8,14.9L34.8,14.9z M41.6,15.8c-1,0.8-1.8,1.3-2.6,1.3
		c-0.4,0-0.8-0.1-1.1-0.4c-0.3-0.3-0.4-0.7-0.4-1.1c0-0.6,0.3-1.1,0.8-1.6s1.6-1.1,3.4-1.9v-0.8c0-0.6,0-1-0.1-1.1
		c-0.1-0.2-0.2-0.3-0.4-0.4c-0.2-0.1-0.4-0.2-0.6-0.2c-0.4,0-0.7,0.1-0.9,0.2c-0.1,0.1-0.2,0.2-0.2,0.4c0,0.1,0.1,0.3,0.2,0.4
		c0.2,0.2,0.3,0.5,0.3,0.7c0,0.3-0.1,0.5-0.3,0.7c-0.2,0.2-0.5,0.3-0.8,0.3c-0.4,0-0.6-0.1-0.9-0.3c-0.2-0.2-0.4-0.5-0.4-0.7
		c0-0.4,0.2-0.8,0.5-1.2s0.8-0.6,1.3-0.8C40,9.1,40.6,9,41.2,9c0.7,0,1.3,0.2,1.8,0.5c0.4,0.3,0.7,0.7,0.8,1
		c0.1,0.2,0.1,0.8,0.1,1.6v3c0,0.4,0,0.6,0,0.7S44,16,44,16c0.1,0,0.1,0.1,0.2,0.1s0.3-0.1,0.4-0.3l0.2,0.2
		c-0.3,0.4-0.6,0.7-0.9,0.9c-0.3,0.2-0.6,0.3-1,0.3s-0.8-0.1-1-0.3C41.8,16.5,41.6,16.2,41.6,15.8L41.6,15.8z M41.6,15.1v-2.6
		c-0.7,0.4-1.2,0.8-1.5,1.3c-0.2,0.3-0.3,0.6-0.3,0.9s0.1,0.5,0.3,0.7c0.1,0.2,0.3,0.2,0.6,0.2C40.9,15.6,41.2,15.5,41.6,15.1
		L41.6,15.1z M51.3,16.9v-0.3c0.3,0,0.5-0.1,0.7-0.2s0.3-0.4,0.3-0.9V9.6h-2.2V13c0,1.2-0.1,2.1-0.2,2.6s-0.4,0.8-0.7,1.1
		c-0.4,0.3-0.7,0.4-1.1,0.4S47.3,17,47,16.7c-0.3-0.3-0.4-0.6-0.4-0.9s0.1-0.6,0.3-0.8c0.2-0.2,0.5-0.3,0.8-0.3
		c0.6,0,0.9,0.4,0.9,1.1c0,0.3,0.1,0.5,0.2,0.5c0.2,0,0.4-0.2,0.6-0.6c0.1-0.4,0.2-1.2,0.2-2.5v-2.3c0-0.5-0.1-0.9-0.2-1.1
		c-0.1-0.2-0.4-0.3-0.7-0.3V9.2h6.9v0.3c-0.6,0-0.8,0.4-0.8,1.1v5c0,0.4,0.1,0.7,0.2,0.8c0.1,0.2,0.3,0.3,0.7,0.3V17L51.3,16.9
		L51.3,16.9z M61.3,8.8c0.7,0,1.3,0.2,1.9,0.5c0.6,0.4,1,0.9,1.3,1.5s0.5,1.4,0.5,2.1c0,1.1-0.3,2-0.8,2.8c-0.7,0.9-1.6,1.4-2.8,1.4
		s-2.1-0.4-2.7-1.2c-0.6-0.8-1-1.8-1-2.9s0.3-2.1,1-2.9C59.3,9.3,60.2,8.8,61.3,8.8L61.3,8.8z M61.3,9.4c-0.3,0-0.5,0.1-0.7,0.3
		s-0.3,0.6-0.4,1.3c-0.1,0.6-0.1,1.5-0.1,2.6c0,0.6,0,1.2,0.1,1.7c0.1,0.4,0.2,0.7,0.4,0.9c0.2,0.2,0.4,0.3,0.7,0.3s0.5-0.1,0.6-0.2
		c0.2-0.2,0.4-0.5,0.4-0.8c0.1-0.5,0.2-1.6,0.2-3.2c0-0.9-0.1-1.6-0.2-2c-0.1-0.4-0.3-0.6-0.5-0.8C61.8,9.5,61.6,9.4,61.3,9.4
		L61.3,9.4z M67.2,16.9v-0.3c0.3,0,0.6-0.1,0.7-0.2c0.1-0.2,0.2-0.5,0.2-0.9v-4.8c0-0.5-0.1-0.8-0.2-1c-0.1-0.2-0.4-0.2-0.7-0.2V9.2
		h4v0.3c-0.3,0-0.5,0.1-0.6,0.2c-0.1,0.1-0.2,0.4-0.2,0.9v2.1h2.2v-2.1c0-0.4,0-0.7-0.1-0.9s-0.3-0.3-0.6-0.3V9.1h4v0.3
		c-0.3,0-0.6,0.1-0.7,0.2C75.1,9.8,75,10,75,10.4v5c0,0.5,0.1,0.8,0.2,1c0.1,0.1,0.4,0.2,0.7,0.2v0.3h-4v-0.3c0.3,0,0.5-0.1,0.6-0.2
		s0.2-0.4,0.2-0.9v-2.4h-2.2v2.3c0,0.5,0.1,0.8,0.2,1c0.1,0.1,0.3,0.2,0.6,0.2v0.3L67.2,16.9L67.2,16.9z M82.4,9.1h4v0.3
		c-0.3,0-0.5,0.1-0.6,0.3s-0.2,0.5-0.2,1v1.9c0.6,0,1.1-0.1,1.3-0.3s0.5-0.6,0.7-1.2c0.3-0.8,0.6-1.4,0.9-1.7
		c0.3-0.3,0.7-0.5,1.2-0.5c0.4,0,0.8,0.1,1.2,0.4c0.3,0.2,0.5,0.6,0.5,1c0,0.3-0.1,0.6-0.3,0.8s-0.4,0.3-0.8,0.3c-0.6,0-1-0.3-1-1
		c0-0.5-0.1-0.7-0.3-0.7c-0.3,0-0.6,0.4-0.9,1.1c-0.2,0.6-0.4,1-0.5,1.2s-0.2,0.3-0.5,0.5c0.6,0.1,1,0.3,1.2,0.5
		c0.3,0.2,0.6,0.6,1,1.3l0.7,1.2c0.4,0.6,0.8,1,1.2,1v0.3h-3L85.9,13h-0.5v2.3c0,0.5,0.1,0.8,0.2,1c0.1,0.2,0.3,0.3,0.6,0.3v0.3h-4
		v-0.3c0.3,0,0.5-0.1,0.6-0.2c0.2-0.1,0.2-0.5,0.2-1v-4.6c0-0.5-0.1-0.9-0.2-1.1c-0.1-0.2-0.4-0.3-0.7-0.3V9.1H82.4z M96.3,16.1V19
		c0,0.4,0,0.7,0.1,0.8c0.1,0.1,0.2,0.3,0.3,0.3c0.1,0.1,0.4,0.1,0.8,0.1v0.3H93v-0.2c0.3,0,0.6-0.1,0.8-0.3c0.1-0.1,0.2-0.5,0.2-1
		v-8.3c0-0.6-0.1-0.9-0.2-1.1c-0.1-0.2-0.4-0.2-0.7-0.3V9h3.3v1c0.3-0.4,0.6-0.7,0.8-0.9c0.4-0.3,0.9-0.4,1.3-0.4
		c0.6,0,1.1,0.2,1.6,0.5c0.5,0.4,0.8,0.9,1.1,1.5c0.2,0.6,0.4,1.3,0.4,2.1s-0.1,1.5-0.4,2.2c-0.3,0.7-0.6,1.2-1.1,1.5
		s-1,0.5-1.6,0.5c-0.4,0-0.8-0.1-1.2-0.3C96.9,16.7,96.6,16.5,96.3,16.1L96.3,16.1z M96.3,15.3c0.5,0.7,1,1,1.5,1
		c0.3,0,0.5-0.2,0.7-0.5c0.3-0.5,0.4-1.4,0.4-2.7c0-1.4-0.2-2.3-0.5-2.8c-0.2-0.3-0.5-0.5-0.9-0.5c-0.6,0-1,0.4-1.4,1.2v4.3H96.3z
		 M108.1,15.8c-1,0.8-1.8,1.3-2.6,1.3c-0.4,0-0.8-0.1-1.1-0.4S104,16,104,15.6c0-0.6,0.3-1.1,0.8-1.6s1.6-1.1,3.4-1.9v-0.8
		c0-0.6,0-1-0.1-1.1c-0.1-0.2-0.2-0.3-0.4-0.4c-0.2-0.1-0.4-0.2-0.6-0.2c-0.4,0-0.7,0.1-0.9,0.2c-0.1,0.1-0.2,0.2-0.2,0.4
		c0,0.1,0.1,0.3,0.2,0.4c0.2,0.2,0.3,0.5,0.3,0.7c0,0.3-0.1,0.5-0.3,0.7s-0.5,0.3-0.8,0.3c-0.4,0-0.6-0.1-0.9-0.3
		c-0.2-0.2-0.4-0.5-0.4-0.7c0-0.4,0.2-0.8,0.5-1.2s0.8-0.6,1.3-0.8c0.6-0.2,1.2-0.3,1.8-0.3c0.7,0,1.3,0.2,1.8,0.5
		c0.4,0.3,0.7,0.7,0.8,1c0.1,0.2,0.1,0.8,0.1,1.6v3c0,0.4,0,0.6,0,0.7s0.1,0.2,0.1,0.2c0.1,0,0.1,0.1,0.2,0.1c0.1,0,0.3-0.1,0.4-0.3
		l0.2,0.2c-0.3,0.4-0.6,0.7-0.9,0.9c-0.3,0.2-0.6,0.3-1,0.3s-0.8-0.1-1-0.3C108.3,16.5,108.2,16.2,108.1,15.8L108.1,15.8z
		 M108.1,15.1v-2.6c-0.7,0.4-1.2,0.8-1.5,1.3c-0.2,0.3-0.3,0.6-0.3,0.9s0.1,0.5,0.3,0.7c0.1,0.2,0.3,0.2,0.6,0.2
		C107.4,15.6,107.8,15.5,108.1,15.1L108.1,15.1z M119.8,14.9l0.3,0.2c-0.4,0.7-0.8,1.2-1.4,1.5c-0.5,0.3-1.1,0.5-1.8,0.5
		c-1,0-1.9-0.4-2.5-1.2c-0.6-0.8-0.9-1.7-0.9-2.8c0-1.1,0.3-2,0.9-2.8c0.7-1,1.6-1.5,2.8-1.5c0.8,0,1.5,0.2,1.9,0.6
		c0.5,0.4,0.7,0.9,0.7,1.4c0,0.3-0.1,0.6-0.3,0.8s-0.4,0.3-0.8,0.3c-0.3,0-0.6-0.1-0.8-0.3s-0.3-0.6-0.4-1.2c0-0.4-0.1-0.6-0.2-0.7
		c-0.1-0.1-0.3-0.2-0.5-0.2c-0.3,0-0.5,0.1-0.7,0.4c-0.3,0.4-0.4,1.1-0.4,2c0,0.7,0.1,1.4,0.4,2.1c0.2,0.7,0.6,1.2,1,1.5
		c0.3,0.2,0.7,0.4,1.1,0.4c0.3,0,0.5-0.1,0.8-0.2C119.1,15.5,119.4,15.2,119.8,14.9L119.8,14.9z M126.7,16.9v-0.3
		c0.5,0,0.8-0.4,0.8-1.1v-3.8l-2.2,3.8c0,0.7,0.3,1.1,0.8,1.1v0.3h-4v-0.3c0.3,0,0.5-0.1,0.7-0.3c0.1-0.2,0.2-0.5,0.2-0.9v-4.8
		c0-0.8-0.3-1.2-0.9-1.2V9.1h4v0.3c-0.3,0-0.5,0.1-0.6,0.3s-0.2,0.5-0.2,0.9v3.8l2.2-3.9c0-0.4-0.1-0.7-0.2-0.9
		c-0.1-0.2-0.3-0.2-0.6-0.2V9.1h4v0.3c-0.3,0-0.5,0.1-0.7,0.2c-0.1,0.1-0.2,0.4-0.2,0.8v5c0,0.5,0.1,0.8,0.2,0.9
		c0.1,0.2,0.4,0.2,0.7,0.2v0.3h-4V16.9z"/>
	<path class="st1" d="M32.7,49v-2.6h1.7V24.9h-1.7v-2.5h8.7c1.8,0,3.2,0.6,4.2,1.7s1.6,2.6,1.7,4.3c0,0.9-0.1,1.6-0.2,2.3
		c-0.2,0.7-0.5,1.3-0.9,1.8c-0.8,1-1.9,1.8-3.1,2.2c1.5,0.2,2.7,1,3.7,2.2c1,1.3,1.5,2.9,1.5,4.8c0,4.8-2.3,7.2-6.8,7.2L32.7,49
		L32.7,49z M38.9,33.5h1.3c2,0,3-1.4,3-4.3c0-2.7-1-4.1-3-4.1h-1.3V33.5L38.9,33.5z M38.9,46.2l1.3,0.1c0.9,0,1.5-0.1,1.8-0.4
		c1-0.6,1.5-2,1.5-4.3c0-1.9-0.3-3.2-1-4.2c-0.5-0.7-1.4-1.1-2.7-1.1c-0.4,0-0.8,0-1,0L38.9,46.2L38.9,46.2z M61.1,40.2h3.1
		c0,3.2-0.7,5.6-2,7.1s-2.9,2.3-4.7,2.3c-2.1,0-3.8-1.1-5.2-3.3c-0.7-1.1-1.2-2.4-1.6-3.8c-0.3-1.4-0.5-3.1-0.5-5.1
		c0-2.9,0.2-5.3,0.5-7.2c0.3-1.9,0.9-3.5,1.6-4.7c1.5-2.5,3.2-3.8,5.2-3.8c1.3,0,2.5,0.6,3.6,1.7s1.9,2.9,2.6,5.2
		c0.2,1,0.4,2.1,0.5,3.3c0.1,1.2,0.1,2.8,0.1,4.8H55c0,6.5,1,9.7,3,9.7c0.8,0,1.5-0.5,2.2-1.6C60.8,43.8,61.1,42.3,61.1,40.2
		L61.1,40.2z M60.1,34c0-1.7,0-3.2-0.1-4.2c-0.1-1.1-0.3-2-0.5-2.8c-0.5-1.6-1.1-2.3-1.9-2.3c-1.2,0-2,0.8-2.2,2.5
		c-0.1,0.9-0.2,1.8-0.2,2.7c0,0.9,0,2.3,0,4.1L60.1,34L60.1,34z M72.3,36.4v10H74V49h-7.8v-2.6h1.7V24.9h-1.7v-2.5H74v2.5h-1.7v8.5
		h5.3v-8.5h-1.7v-2.5h7.8v2.5H82v21.6h1.7v2.6h-7.8v-2.6h1.7v-10L72.3,36.4L72.3,36.4z M97.1,49h-7.7v-2.6h1.7V25.2
		c-0.1,0-0.3-0.1-0.6-0.1c-0.4,0-0.7,0.1-1.1,0.4c-0.3,0.3-0.6,0.8-0.8,1.5l-0.3,2.3l-0.1,3.4h-2.6V22.4H101v10.4h-2.7
		c0-1.5-0.1-2.7-0.2-3.8c-0.1-1-0.2-1.9-0.4-2.5c-0.2-0.9-0.7-1.4-1.7-1.4c-0.3,0-0.5,0-0.6,0v21.3h1.7L97.1,49L97.1,49z
		 M105.1,25.2h-2v-2.8h8v2.5h-1.7v21.6h1.7V49h-7.9v-2.5h1.7L105.1,25.2L105.1,25.2z M119.5,36.4v10h1.7V49h-7.8v-2.6h1.7V24.9h-1.7
		v-2.5h7.8v2.5h-1.7v8.5h5.3v-8.5h-1.7v-2.5h7.8v2.5h-1.7v21.6h1.7v2.6h-7.8v-2.6h1.7v-10L119.5,36.4L119.5,36.4z"/>
	<path class="st1" d="M19.4,36.9H9l-1.7,8.6h3.3V49H0v-3.5h2.6L12.1,0h5.8l9.8,45.5h3.2V49h-13v-3.5h3.3L19.4,36.9L19.4,36.9z
		 M14,10.3L9.7,33.1h8.8L14,10.3z"/>
</g>
</svg>
