<?xml version="1.0" encoding="utf-8"?>
<!-- Generator: Adobe Illustrator 21.1.0, SVG Export Plug-In . SVG Version: 6.00 Build 0)  -->
<svg version="1.1" id="Footer" xmlns="http://www.w3.org/2000/svg" xmlns:xlink="http://www.w3.org/1999/xlink" x="0px" y="0px"
	 viewBox="0 0 18.2 12.6" style="enable-background:new 0 0 18.2 12.6;" xml:space="preserve">
<style type="text/css">
	.st0{fill:none;stroke:#A69E7B;stroke-miterlimit:10;}
</style>
<g>
	<path class="st0" d="M0.8,3.2c-0.1-0.1-0.9-1.9,1-2.7l14.7,0c0,0,2.5,0.8,0.4,3.5l-6.7,4.8c0,0-0.8,0.6-2.1,0S3.9,5.8,3.9,5.8
		S1.1,3.8,0.8,3.2z"/>
	<path class="st0" d="M17.7,2.9l0,7.9c0,0-0.3,1.2-1.5,1.3c-1.2,0-14.2,0-14.2,0s-1.4-0.3-1.4-1.4c0-1,0-7.8,0-7.8"/>
</g>
</svg>
